<?xml version="1.0" encoding="UTF-8" standalone="no"?>
<svg
   xmlns:dc="http://purl.org/dc/elements/1.1/"
   xmlns:cc="http://creativecommons.org/ns#"
   xmlns:rdf="http://www.w3.org/1999/02/22-rdf-syntax-ns#"
   xmlns:svg="http://www.w3.org/2000/svg"
   xmlns="http://www.w3.org/2000/svg"
   viewBox="0 0 328.72 77.08"
   version="1.1"
   id="svg3945"
   width="328.72"
   height="77.080002">
  <metadata
     id="metadata3951">
    <rdf:RDF>
      <cc:Work
         rdf:about="">
        <dc:format>image/svg+xml</dc:format>
        <dc:type
           rdf:resource="http://purl.org/dc/dcmitype/StillImage" />
        <dc:title>flasher</dc:title>
      </cc:Work>
    </rdf:RDF>
  </metadata>
  <defs
     id="defs3949" />
  <title
     id="title3916">flasher</title>
  <g
     id="logog">
    <path
       id="path138"
       d="m 32.86,2 -13,7.5 v 0 h -0.05 v 0 l -0.48,0.28 c -4.27,2.46 -5.68,11.38 -6.06,14.75 L 36.2,11.33 c 0.39,-0.19 7.6,-3.69 13.57,-3.69 h 0.14 L 40.13,2 a 8.15,8.15 0 0 0 -7.27,0"
       transform="translate(-2.04,-1.15)"
       style="fill:#364d5c" />
    <path
       id="path142"
       d="M 5.68,17.69 A 8.2,8.2 0 0 0 2,24 v 15.78 c 0,4.9 7,10.48 9.75,12.46 V 25.77 c 0,-0.44 0.6,-8.55 3.65,-13.72 z"
       transform="translate(-2.04,-1.15)"
       style="fill:#364d5c" />
    <path
       id="path146"
       d="m 12.1,54.12 v 0 C 11.74,53.88 5,49.41 2,44.24 v 11.14 a 8.2,8.2 0 0 0 3.64,6.3 l 13.5,7.79 c 4.28,2.46 12.7,-0.77 15.81,-2.12 z"
       transform="translate(-2.04,-1.15)"
       style="fill:#364d5c" />
    <path
       id="path150"
       d="m 36.79,68 c -0.4,0.19 -7.71,3.75 -13.71,3.69 l 9.78,5.64 a 8.15,8.15 0 0 0 7.27,0 l 13.51,-7.8 c 4.27,-2.46 5.68,-11.39 6.06,-14.75 z"
       transform="translate(-2.04,-1.15)"
       style="fill:#364d5c" />
    <path
       id="path154"
       d="M 61.2,27.13 V 53.6 c 0,0.44 -0.6,8.55 -3.65,13.72 l 9.77,-5.64 A 8.2,8.2 0 0 0 71,55.38 V 39.59 c 0,-4.94 -7,-10.5 -9.75,-12.46"
       transform="translate(-2.04,-1.15)"
       style="fill:#364d5c" />
    <path
       id="path158"
       d="M 67.31,17.69 53.81,9.9 C 49.53,7.44 41.11,10.67 38,12 l 22.85,13.23 v 0 a 43.43,43.43 0 0 1 5.7,4.51 24,24 0 0 1 4.45,5.35 V 24 a 8.2,8.2 0 0 0 -3.64,-6.3"
       transform="translate(-2.04,-1.15)"
       style="fill:#364d5c" />
  </g>
  <g
     id="re" />
  <text
     xml:space="preserve"
     style="font-style:normal;font-weight:normal;font-size:40px;line-height:1.25;font-family:sans-serif;letter-spacing:0px;word-spacing:0px;fill:#364d5c;fill-opacity:1;stroke:none"
     x="74.101189"
     y="54.47554"
     id="text3955"><tspan
       id="tspan3953"
       x="74.101189"
       y="54.47554"
       style="font-style:normal;font-variant:normal;font-weight:bold;font-stretch:normal;font-size:44px;font-family:sans-serif;-inkscape-font-specification:'sans-serif, Bold';font-variant-ligatures:normal;font-variant-caps:normal;font-variant-numeric:normal;font-feature-settings:normal;text-align:start;writing-mode:lr-tb;text-anchor:start;fill:#364d5c;fill-opacity:1"><tspan
   style="font-style:normal;font-variant:normal;font-weight:bold;font-stretch:normal;font-family:sans-serif;-inkscape-font-specification:'sans-serif Bold'"
   id="tspan86">TDM</tspan><tspan
   style="font-style:normal;font-variant:normal;font-weight:normal;font-stretch:normal;font-family:sans-serif;-inkscape-font-specification:sans-serif"
   id="tspan3845">Ripper</tspan> </tspan></text>
</svg>
